<svg xmlns="http://www.w3.org/2000/svg" viewBox="0 0 1200 630" role="img" aria-label="Visibility Nowcasting project preview">
  <defs>
    <linearGradient id="bg" x1="0" y1="0" x2="1" y2="1">
      <stop stop-color="#eef7fb"/>
      <stop offset="1" stop-color="#ffffff"/>
    </linearGradient>
    <linearGradient id="line" x1="180" y1="160" x2="1040" y2="470" gradientUnits="userSpaceOnUse">
      <stop stop-color="#177e9c"/>
      <stop offset="1" stop-color="#0f9f6e"/>
    </linearGradient>
  </defs>
  <rect width="1200" height="630" fill="url(#bg)"/>
  <g opacity="0.16" stroke="#18323f">
    <path d="M0 110h1200M0 220h1200M0 330h1200M0 440h1200M0 550h1200"/>
    <path d="M130 0v630M260 0v630M390 0v630M520 0v630M650 0v630M780 0v630M910 0v630M1040 0v630"/>
  </g>
  <rect x="84" y="86" width="1032" height="458" rx="42" fill="#fff" stroke="#cfe4eb"/>
  <text x="130" y="180" fill="#177e9c" font-family="Arial, sans-serif" font-size="28" font-weight="700" letter-spacing="4">VISIBILITY NOWCASTING · 2026</text>
  <text x="130" y="270" fill="#182a33" font-family="Arial, sans-serif" font-size="58" font-weight="800">Class imbalance and</text>
  <text x="130" y="340" fill="#182a33" font-family="Arial, sans-serif" font-size="58" font-weight="800">distribution shift in Korea</text>
  <path d="M150 448c120-130 250-160 390-90 110 55 190 48 280-26 54-44 102-62 160-58" fill="none" stroke="url(#line)" stroke-width="18" stroke-linecap="round"/>
  <circle cx="985" cy="274" r="42" fill="#f8c14a"/>
  <text x="130" y="500" fill="#4b5e68" font-family="Arial, sans-serif" font-size="30">Theoretical and Applied Climatology · DOI 10.1007/s00704-026-06219-6</text>
</svg>
